<svg width="44" height="51" viewBox="0 0 44 51" fill="none" xmlns="http://www.w3.org/2000/svg">
<g clip-path="url(#clip0_384_2045)">
<path d="M24.9682 39.2858C24.9901 39.3689 25.0438 39.4398 25.1174 39.4828C25.1909 39.526 25.2781 39.5376 25.3603 39.5154L26.9154 39.0926C27.0264 39.0626 27.113 38.9744 27.142 38.8616C27.1712 38.7489 27.1387 38.6291 27.0565 38.5472C26.9747 38.4657 26.8557 38.435 26.7452 38.4667L24.5472 39.0642C24.0802 39.1911 23.6 38.91 23.4751 38.4362L23.352 37.9708C23.227 37.4971 23.504 37.0101 23.9711 36.8831L26.821 36.1084C27.2879 35.9814 27.768 36.2627 27.8933 36.7364L27.9759 37.05L26.792 37.3718C26.7464 37.1985 26.5709 37.0959 26.4001 37.1422L24.845 37.565C24.6741 37.6113 24.5729 37.7894 24.6186 37.9626C24.6644 38.136 24.84 38.2385 25.0106 38.1923L27.2132 37.5934C27.4373 37.5324 27.6763 37.5642 27.8774 37.6821C28.0787 37.8 28.2254 37.994 28.2854 38.2214L28.4085 38.6869C28.4685 38.9143 28.4372 39.1568 28.321 39.3607C28.2049 39.5648 28.0136 39.7136 27.7895 39.7746L24.9397 40.5492C24.4726 40.6762 23.9925 40.3951 23.8674 39.9212L23.7846 39.6076L24.9682 39.2858Z" fill="#3A5A42" stroke="white" stroke-width="0.1764" stroke-linecap="round" stroke-linejoin="round"/>
<path d="M17.5158 39.378L18.0217 38.1077L15.7484 37.176L15.4557 37.9108L16.3105 38.2613L16.5926 38.3768L16.4861 38.644C16.4578 38.7152 16.4028 38.7719 16.3334 38.8018C16.264 38.8317 16.1855 38.8324 16.1154 38.8037L14.3698 38.0882C14.224 38.0285 14.1535 37.8601 14.2125 37.712L14.7447 36.3756C14.7729 36.3046 14.8279 36.2479 14.8974 36.218C14.9669 36.188 15.0453 36.1873 15.1154 36.2161L16.861 36.9315C16.9311 36.9603 16.9869 37.0159 17.0164 37.0865C17.046 37.1571 17.0466 37.2365 17.0183 37.3077L18.1547 37.7735L18.2614 37.5058C18.4424 37.0508 18.2259 36.5331 17.7775 36.3493L14.8543 35.1511C14.4061 34.9674 13.8958 35.1871 13.7146 35.6418L12.969 37.5141C12.7879 37.9689 13.0044 38.4866 13.4528 38.6703L16.376 39.8686C16.8244 40.0524 17.3345 39.8325 17.5158 39.378Z" fill="#3A5A42" stroke="white" stroke-width="0.1764" stroke-linecap="round" stroke-linejoin="round"/>
<path d="M13.2351 33.9602L12.0639 32.8905L8.19434 34.4632L9.09631 35.2873L10.0018 34.9192L11.4587 36.2502L11.1927 37.2023L12.0979 38.0291L13.2351 33.9602Z" fill="#3A5A42" stroke="white" stroke-width="0.1764" stroke-linecap="round" stroke-linejoin="round"/>
<path d="M12.0606 34.0825L10.8169 34.5882L11.6984 35.3932L12.0606 34.0825Z" fill="white"/>
<path d="M22.9763 37.0923L22.8848 37.9757L19.9699 37.6648L19.9029 38.3105L22.4697 38.5843L22.3879 39.3725L19.8213 39.0991L19.7619 39.6731L22.6767 39.9839L22.5853 40.867L18.4514 40.4263L18.8425 36.6516L22.9763 37.0923Z" fill="#3A5A42" stroke="white" stroke-width="0.1764" stroke-linecap="round" stroke-linejoin="round"/>
<path d="M35.4554 34.7559L32.803 32.0645L32.0227 32.8652L34.6851 35.5438L35.4585 34.7593" fill="#3A5A42"/>
<path d="M35.4554 34.7559L32.803 32.0645L32.0227 32.8652L34.6851 35.5438L35.4585 34.7593" stroke="white" stroke-width="0.1764" stroke-linecap="round" stroke-linejoin="round"/>
<path d="M32.5753 34.124L31.5475 34.8011C31.4616 34.6673 31.2854 34.6292 31.1535 34.7162L29.5744 35.7564C29.4425 35.8433 29.4051 36.0223 29.4907 36.1561L30.2646 37.3649C30.3057 37.4293 30.3704 37.4743 30.4441 37.4902C30.5181 37.5064 30.5951 37.4919 30.6584 37.45L32.2374 36.4098C32.3694 36.323 32.407 36.1439 32.3213 36.0101L32.1665 35.7683L33.1944 35.0912L33.5042 35.5752C33.7675 35.9864 33.6523 36.5365 33.2469 36.8037L30.6026 38.5457C30.4079 38.6741 30.1709 38.7187 29.9438 38.6697C29.7166 38.6207 29.518 38.4822 29.3917 38.2847L28.3076 36.5912C28.0443 36.1798 28.1595 35.6297 28.5649 35.3625L31.209 33.6205C31.6146 33.3535 32.1568 33.4703 32.4201 33.8817L32.5753 34.124Z" fill="#3A5A42" stroke="white" stroke-width="0.1764" stroke-linecap="round" stroke-linejoin="round"/>
<path d="M17.795 18.035C17.5922 18.1118 17.3745 18.1396 17.1595 18.1158C16.9484 18.0927 16.7454 18.0212 16.5658 17.9064C15.8706 17.4817 15.24 16.9569 14.6936 16.3483C13.6827 15.1077 12.386 14.139 10.918 13.5284C9.22099 12.7971 7.27304 12.9982 5.75597 14.0614C4.53046 15.0956 3.84456 16.6463 3.89792 18.2626C3.95115 19.879 4.73756 21.3797 6.02831 22.3286C4.74135 23.2802 3.95898 24.7808 3.90753 26.3957C3.85607 28.0105 4.54146 29.5592 5.76508 30.5933C7.28202 31.6566 9.22984 31.858 10.9272 31.1271C12.0129 30.6756 13.0082 30.0271 13.8644 29.2132C14.5802 28.5852 15.2082 27.8614 15.731 27.0612C15.8348 26.9264 15.9501 26.8014 16.076 26.6875C16.6938 26.1279 17.5228 25.8721 18.3434 25.9874C19.1637 26.103 19.8927 26.5784 20.337 27.2876C20.4338 27.4421 20.5157 27.6055 20.5817 27.7761C20.7922 28.4849 20.8671 29.2281 20.8021 29.9655C20.6915 31.2211 20.4227 32.457 20.002 33.6431C19.7764 34.1763 19.5057 34.6888 19.1929 35.1747L22.2386 36.2012L22.6523 34.5699C22.8367 33.3165 22.9464 32.0525 22.9809 30.7857C23.0086 29.7682 23.1554 28.758 23.4186 27.776C23.4845 27.6055 23.5666 27.442 23.6635 27.2874C24.1079 26.5784 24.8368 26.103 25.6573 25.9873C26.4776 25.872 27.3066 26.1278 27.9244 26.6874C28.0501 26.8013 28.1656 26.9262 28.2695 27.061C28.7922 27.8613 29.4203 28.5851 30.1363 29.2131C30.9923 30.027 31.9879 30.6755 33.0734 31.127C34.7705 31.8578 36.7185 31.6565 38.2354 30.5931C39.4592 29.559 40.1447 28.0103 40.0931 26.3956C40.0416 24.7807 39.259 23.2801 37.9721 22.3285C39.2631 21.3796 40.0495 19.8789 40.1026 18.2624C40.1559 16.6461 39.47 15.0955 38.2446 14.0613C36.7275 12.9981 34.7795 12.7971 33.0825 13.5282C31.6148 14.1389 30.3178 15.1076 29.307 16.3482C28.7607 16.9569 28.1299 17.4817 27.4346 17.9062C27.2551 18.021 27.0522 18.0926 26.8412 18.1157C26.626 18.1394 26.4083 18.1117 26.2055 18.0349C26.1108 17.9901 26.024 17.9294 25.9492 17.8556C25.6921 17.6021 25.547 17.2537 25.547 16.89C25.547 16.5261 25.692 16.1777 25.9492 15.9241C26.2927 15.5855 26.674 15.2891 27.0857 15.041C28.6928 13.9583 29.9431 12.4118 30.675 10.601C31.3958 8.87944 31.1975 6.9031 30.1495 5.36403C29.1301 4.12073 27.6018 3.42489 26.0085 3.47901C24.4152 3.53301 22.9359 4.33084 22.0007 5.64044C21.0653 4.33084 19.5861 3.53301 17.9929 3.47901C16.3996 3.42501 14.8711 4.12073 13.8517 5.36403C12.8038 6.9031 12.6056 8.87931 13.3263 10.601C14.0583 12.4118 15.3083 13.9583 16.9154 15.041C17.3271 15.2891 17.7085 15.5855 18.0521 15.9241C18.3092 16.1777 18.4544 16.5261 18.4544 16.89C18.4544 17.2537 18.3094 17.6021 18.0521 17.8556C17.9765 17.9297 17.8897 17.9904 17.795 18.035Z" fill="#3A5A42" stroke="white" stroke-width="0.1764" stroke-linecap="round" stroke-linejoin="round"/>
<path d="M22.0001 5.76431C20.5068 3.6942 17.6876 3.15253 15.5516 4.52525C13.4156 5.89796 12.6938 8.71522 13.9005 10.9694C14.5836 12.4742 15.6003 13.7986 16.8709 14.8392C17.277 15.0856 17.6602 15.3691 18.0157 15.6861C18.4536 16.0768 18.7146 16.6326 18.7378 17.2239C18.7514 17.57 18.6828 17.9144 18.5378 18.228C18.442 18.4352 18.2315 18.5623 18.0063 18.5487C17.3445 18.5087 16.7039 18.297 16.146 17.934C15.4722 17.369 14.8259 16.7712 14.2094 16.1426C13.3527 15.3035 12.3627 14.6169 11.2811 14.1114C9.05915 12.8874 6.28218 13.6196 4.9291 15.7866C3.57602 17.9535 4.10994 20.8135 6.15031 22.3286C4.11475 23.8474 3.586 26.7061 4.9401 28.8705C6.29419 31.0348 9.06901 31.7661 11.2903 30.544C12.863 29.8092 14.2347 28.695 15.2851 27.2985C15.4745 27.0597 15.6697 26.8259 15.8707 26.5973C16.493 25.84 17.4587 25.4655 18.4202 25.6082C19.3819 25.7511 20.201 26.3908 20.5832 27.2973C20.6668 27.4526 20.7366 27.6152 20.7921 27.7829C20.969 28.4131 21.0577 29.0654 21.0555 29.7206C21.0532 30.3645 20.9632 31.005 20.7879 31.6237C20.5856 32.3376 20.3687 33.0473 20.1368 33.7522C19.9397 34.2121 19.7095 34.6568 19.448 35.0827L22.1269 35.9854L22.4581 34.6769C22.6293 33.3992 22.7492 32.1148 22.8174 30.8273C22.8717 29.804 23.0023 28.7862 23.2082 27.7829C23.2637 27.6151 23.3337 27.4526 23.4171 27.2973C23.7993 26.3908 24.6186 25.751 25.5801 25.6082C26.5416 25.4655 27.5072 25.84 28.1295 26.5973C28.3308 26.8259 28.5261 27.0596 28.7153 27.2985C29.7657 28.695 31.1372 29.8092 32.7102 30.544C34.9313 31.7661 37.7062 31.0348 39.0604 28.8705C40.4145 26.7061 39.8856 23.8474 37.85 22.3286C39.8905 20.8135 40.4243 17.9535 39.0713 15.7866C37.7182 13.6195 34.9412 12.8872 32.7193 14.1114C31.6378 14.6169 30.6477 15.3035 29.791 16.1426C29.1742 16.7712 28.5282 17.3691 27.8544 17.934C27.2963 18.2971 26.6558 18.5088 25.9939 18.5487C25.7689 18.5623 25.5582 18.4352 25.4625 18.228C25.3176 17.9144 25.249 17.57 25.2626 17.2239C25.2858 16.6328 25.5469 16.077 25.9848 15.6861C26.3402 15.3691 26.7233 15.0856 27.1293 14.8392C28.4001 13.7986 29.4167 12.4742 30.0998 10.9694C31.3066 8.71522 30.5847 5.89783 28.4486 4.52525C26.3124 3.15266 23.4933 3.69433 22.0001 5.76431Z" fill="white" stroke="white" stroke-width="0.1764" stroke-linecap="round" stroke-linejoin="round"/>
<path d="M21.7973 46.8281C21.7607 46.5521 21.6431 46.2931 21.4599 46.0853C21.0262 46.3335 20.6194 46.6273 20.2459 46.9615C20.1346 47.0286 20.023 47.0953 19.9113 47.1617C19.8471 47.4184 19.8563 47.6885 19.938 47.9403C20.0537 48.1598 20.0856 48.4148 20.0272 48.6566C20.4666 48.4987 20.8745 48.2615 21.2314 47.9573C21.3891 47.8204 21.554 47.6925 21.7251 47.5737C21.8018 47.5206 21.8796 47.4695 21.9588 47.4203C21.8458 47.2446 21.7893 47.0377 21.7973 46.8281Z" fill="#3A5A42" stroke="white" stroke-width="0.1764" stroke-linecap="round" stroke-linejoin="round"/>
<path d="M24.5946 45.9235C24.5582 45.6503 24.443 45.3941 24.263 45.1876C23.3983 45.2739 22.5566 45.52 21.7791 45.9135C22.1702 46.0755 22.4349 46.4507 22.4596 46.8784C22.4708 46.9592 22.4888 47.0386 22.5138 47.1161C23.2266 46.7752 24.001 46.5869 24.7884 46.5629C24.654 46.3783 24.5856 46.1527 24.5946 45.9235Z" fill="#3A5A42" stroke="white" stroke-width="0.1764" stroke-linecap="round" stroke-linejoin="round"/>
<path d="M26.9637 45.4441C26.27 45.2381 25.5496 45.1402 24.8269 45.1538C25.0812 45.3505 25.2379 45.6497 25.2566 45.9736C25.2684 46.0579 25.2875 46.1408 25.3143 46.2218L25.2958 46.5693L26.0321 46.6454C26.4896 46.3884 26.8256 45.955 26.9639 45.4433" fill="#3A5A42"/>
<path d="M26.9637 45.4441C26.27 45.2381 25.5496 45.1402 24.8269 45.1538C25.0812 45.3505 25.2379 45.6497 25.2566 45.9736C25.2684 46.0579 25.2875 46.1408 25.3143 46.2218L25.2958 46.5693L26.0321 46.6454C26.4896 46.3884 26.8256 45.955 26.9639 45.4433" stroke="white" stroke-width="0.1764" stroke-linecap="round" stroke-linejoin="round"/>
<path d="M28.2617 45.4499C27.9975 45.4248 27.7315 45.4778 27.4962 45.6027C27.3445 46.1541 27.0133 46.6369 26.5564 46.973C26.864 47.0421 27.1275 47.2421 27.2796 47.5218C27.3752 47.6684 27.4977 47.7952 27.6401 47.8952C28.3674 47.2536 28.8335 46.3605 28.9481 45.3895C28.7336 45.4921 28.4903 45.5134 28.2617 45.4499Z" fill="#3A5A42" stroke="white" stroke-width="0.1764" stroke-linecap="round" stroke-linejoin="round"/>
<path d="M26.6606 47.7658C26.7543 47.9867 26.9225 48.1663 27.1351 48.2726C26.5498 48.64 25.8791 48.8431 25.1913 48.8611C24.9224 48.8683 24.6532 48.8469 24.3886 48.7975C24.3769 48.6223 24.3983 48.4463 24.4517 48.2789C24.5724 47.9836 24.5622 47.6501 24.4237 47.3629C24.6741 47.4333 24.9338 47.4638 25.1933 47.4528C25.4935 47.4403 25.7891 47.3729 26.0655 47.2539C26.3086 47.3627 26.5153 47.5406 26.6606 47.7658Z" fill="#3A5A42" stroke="white" stroke-width="0.1764" stroke-linecap="round" stroke-linejoin="round"/>
<path d="M23.8776 47.9402C23.7658 48.1521 23.7322 48.3976 23.7829 48.6323C23.473 48.5199 23.1784 48.3678 22.906 48.1803L22.2559 47.7314C22.7431 47.4397 23.2734 47.2286 23.8264 47.1064C23.8509 47.1208 23.8758 47.1353 23.9011 47.149C23.9688 47.4097 23.9608 47.6843 23.8776 47.9402Z" fill="#3A5A42" stroke="white" stroke-width="0.1764" stroke-linecap="round" stroke-linejoin="round"/>
<path d="M24.591 43.9215C24.5559 44.1937 24.4422 44.4492 24.2643 44.656C23.4031 44.5702 22.5645 44.3261 21.7896 43.9354C22.1729 43.7689 22.4302 43.3963 22.4533 42.9739C22.4644 42.8895 22.4835 42.8063 22.51 42.7256C23.2224 43.0669 23.9964 43.2558 24.7837 43.2803C24.6495 43.4657 24.5814 43.6918 24.591 43.9215Z" fill="#3A5A42" stroke="white" stroke-width="0.1764" stroke-linecap="round" stroke-linejoin="round"/>
<path d="M21.7911 43.0264C21.7821 42.8122 21.8405 42.6008 21.9579 42.4227C21.6982 42.2605 21.4515 42.0783 21.2199 41.8773L20.9319 41.6764C20.5714 41.425 20.1719 41.237 19.75 41.1201C19.6642 41.273 19.6082 41.4413 19.5846 41.6155C19.567 41.9396 19.4107 42.2396 19.1567 42.437C19.4558 42.4904 19.7426 42.5985 20.0033 42.7562L20.3107 42.942C20.6685 43.2518 21.0549 43.5259 21.4644 43.7608C21.6422 43.5539 21.7558 43.2985 21.7911 43.0264Z" fill="#3A5A42" stroke="white" stroke-width="0.1764" stroke-linecap="round" stroke-linejoin="round"/>
<path d="M18.9229 41.668C18.9127 41.4279 18.9875 41.192 19.1336 41.0026L18.8862 40.984C17.8895 40.9422 16.9148 41.2896 16.1633 41.9552C16.6538 42.2577 17.1903 42.4753 17.7512 42.5992C18.0194 42.4842 18.3052 42.4174 18.5961 42.4021C18.774 42.1955 18.8877 41.9401 18.9229 41.668Z" fill="#3A5A42" stroke="white" stroke-width="0.1764" stroke-linecap="round" stroke-linejoin="round"/>
<path d="M15.3958 42.922C15.4274 42.6787 15.3952 42.4312 15.3022 42.2045L16.0648 42.5485C16.4944 42.791 16.9531 42.9766 17.4294 43.1005C17.5198 43.2591 17.5559 43.4434 17.5323 43.6246C17.4497 43.9397 17.4696 44.2732 17.589 44.5756C16.8954 44.4486 16.2243 44.2179 15.5976 43.891C15.3682 43.6259 15.2916 43.2586 15.3958 42.922Z" fill="#3A5A42" stroke="white" stroke-width="0.1764" stroke-linecap="round" stroke-linejoin="round"/>
<path d="M18.0825 43.6985C18.103 43.5417 18.0969 43.3824 18.0646 43.2277C18.573 43.2994 19.0884 43.3015 19.5974 43.2343C20.0407 43.6581 20.531 44.028 21.0589 44.3363C20.1647 44.6314 19.2217 44.7439 18.2843 44.6675C18.055 44.4023 17.9785 44.035 18.0825 43.6985Z" fill="#3A5A42" stroke="white" stroke-width="0.1764" stroke-linecap="round" stroke-linejoin="round"/>
<path d="M18.0825 46.145C18.103 46.3019 18.0969 46.4611 18.0646 46.6159C18.573 46.5439 19.0884 46.5417 19.5974 46.6091C20.0407 46.1852 20.531 45.8154 21.0589 45.507C20.1647 45.212 19.2217 45.0994 18.2843 45.1761C18.055 45.4411 17.9785 45.8083 18.0825 46.145Z" fill="#3A5A42" stroke="white" stroke-width="0.1764" stroke-linecap="round" stroke-linejoin="round"/>
<path d="M19.3861 47.3753C19.2531 47.6599 19.2451 47.9881 19.3642 48.2789C19.4197 48.4531 19.4406 48.637 19.4255 48.8195C19.2559 48.851 19.0844 48.871 18.9122 48.8796C17.9003 48.929 16.9093 48.5765 16.1492 47.8967C16.6339 47.5956 17.1642 47.3776 17.7187 47.2512C18.095 47.4191 18.5063 47.4903 18.9162 47.4584C19.075 47.4461 19.2324 47.4181 19.3861 47.3753Z" fill="#3A5A42" stroke="white" stroke-width="0.1764" stroke-linecap="round" stroke-linejoin="round"/>
<path d="M15.3957 46.9214C15.4448 47.2979 15.34 47.6782 15.106 47.9746C15.2713 47.8298 15.4449 47.6945 15.6255 47.5698C16.1751 47.1902 16.7854 46.9103 17.4294 46.7428C17.5198 46.5844 17.556 46.4002 17.5323 46.2187C17.4498 45.9038 17.4696 45.5701 17.5891 45.2678C17.2973 45.3213 17.0092 45.3931 16.7262 45.4831C16.3374 45.6064 15.9599 45.7636 15.5977 45.9525C15.3682 46.2175 15.2916 46.5847 15.3957 46.9214Z" fill="#3A5A42" stroke="white" stroke-width="0.1764" stroke-linecap="round" stroke-linejoin="round"/>
<path d="M15.4075 44.2664L15.0624 44.0865C14.9382 44.6405 14.9375 45.2156 15.0605 45.7699C15.4789 45.5228 15.9197 45.317 16.3768 45.1555C16.3625 45.0002 16.3632 44.844 16.3789 44.6886C16.0457 44.5711 15.7212 44.43 15.4075 44.2664Z" fill="#3A5A42" stroke="white" stroke-width="0.1764" stroke-linecap="round" stroke-linejoin="round"/>
<path d="M14.6813 47.2938C14.7075 47.4951 14.69 47.6997 14.6301 47.8934L14.4818 48.6129L13.6752 49.577L12.6177 48.6658L13.4244 47.7021C13.826 47.2223 14.2877 46.798 14.7976 46.4395C14.6348 46.6924 14.5922 47.0059 14.6813 47.2938Z" fill="#3A5A42" stroke="white" stroke-width="0.1764" stroke-linecap="round" stroke-linejoin="round"/>
<path d="M13.4131 49.9057L12.3557 48.9946L12.2421 49.1303L13.2996 50.0414L13.4131 49.9057Z" fill="#3A5A42" stroke="white" stroke-width="0.1764" stroke-linecap="round" stroke-linejoin="round"/>
<path d="M13.0845 50.293L12.0271 49.382L11.4464 50.0757L12.5038 50.9868L13.0845 50.293Z" fill="#3A5A42" stroke="white" stroke-width="0.1764" stroke-linecap="round" stroke-linejoin="round"/>
<path d="M28.5034 47.8024C28.8031 47.437 29.0438 47.0257 29.2168 46.5841C29.6488 46.9107 30.0427 47.2855 30.3914 47.7021L31.1983 48.6658L30.1408 49.577L29.3341 48.6129C29.0846 48.3152 28.8065 48.0437 28.5034 47.8024Z" fill="#3A5A42" stroke="white" stroke-width="0.1764" stroke-linecap="round" stroke-linejoin="round"/>
<path d="M30.5271 50.0366L31.5845 49.1256L31.4709 48.9899L30.4135 49.9009L30.5271 50.0366Z" fill="#3A5A42" stroke="white" stroke-width="0.1764" stroke-linecap="round" stroke-linejoin="round"/>
<path d="M31.3151 50.9824L32.3726 50.0714L31.7918 49.3776L30.7343 50.2886L31.3151 50.9824Z" fill="#3A5A42" stroke="white" stroke-width="0.1764" stroke-linecap="round" stroke-linejoin="round"/>
<path d="M22.5963 41.8769L22.9061 41.6631C23.2606 41.4186 23.6524 41.2352 24.0659 41.1205C24.1515 41.2732 24.2075 41.4414 24.231 41.6155C24.2484 41.9347 24.4003 42.2309 24.6478 42.4286C24.4306 42.4683 24.2195 42.5369 24.0202 42.6331C23.4526 42.5268 22.9062 42.3252 22.4043 42.0363C22.4652 41.9876 22.5252 41.9375 22.5843 41.8865" fill="#3A5A42"/>
<path d="M22.5963 41.8769L22.9061 41.6631C23.2606 41.4186 23.6524 41.2352 24.0659 41.1205C24.1515 41.2732 24.2075 41.4414 24.231 41.6155C24.2484 41.9347 24.4003 42.2309 24.6478 42.4286C24.4306 42.4683 24.2195 42.5369 24.0202 42.6331C23.4526 42.5268 22.9062 42.3252 22.4043 42.0363C22.4652 41.9876 22.5252 41.9375 22.5843 41.8865" stroke="white" stroke-width="0.1764" stroke-linecap="round" stroke-linejoin="round"/>
<path d="M26.9639 44.4001C26.8233 43.8794 26.4779 43.4404 26.0089 43.1851C25.7715 43.23 25.5314 43.2595 25.2903 43.2736L25.31 43.6208C25.2834 43.7017 25.2646 43.7847 25.2532 43.8691C25.2354 44.1925 25.08 44.4918 24.8271 44.6895C25.5497 44.7032 26.27 44.6054 26.9636 44.3991" fill="#3A5A42"/>
<path d="M26.9639 44.4001C26.8233 43.8794 26.4779 43.4404 26.0089 43.1851C25.7715 43.23 25.5314 43.2595 25.2903 43.2736L25.31 43.6208C25.2834 43.7017 25.2646 43.7847 25.2532 43.8691C25.2354 44.1925 25.08 44.4918 24.8271 44.6895C25.5497 44.7032 26.27 44.6054 26.9636 44.3991" stroke="white" stroke-width="0.1764" stroke-linecap="round" stroke-linejoin="round"/>
<path d="M27.4749 42.736C27.2908 42.9299 27.1659 43.174 27.1155 43.4385C27.4458 43.9026 27.6116 44.4663 27.5856 45.0384C27.8306 44.8374 28.1489 44.753 28.4595 44.8069C28.6322 44.8224 28.8061 44.8043 28.972 44.7538C28.9309 43.7768 28.5333 42.8502 27.8564 42.1541C27.8016 42.3878 27.6662 42.5943 27.4749 42.736Z" fill="#3A5A42" stroke="white" stroke-width="0.1764" stroke-linecap="round" stroke-linejoin="round"/>
<path d="M14.6813 42.5493C14.7101 42.3279 14.6861 42.1028 14.6111 41.893L12.6267 40.9951C12.7224 41.2433 12.7273 41.5179 12.6403 41.7693C12.5758 42.0187 12.5814 42.2815 12.6561 42.5279L14.9552 43.5932C14.6727 43.328 14.5661 42.9217 14.6813 42.5493Z" fill="#3A5A42" stroke="white" stroke-width="0.1764" stroke-linecap="round" stroke-linejoin="round"/>
<path d="M12.0484 41.4637C11.9401 41.7004 11.9262 41.97 12.0094 42.2168L10.138 41.1304C10.0925 40.872 10.1201 40.6063 10.2178 40.3635C10.3364 40.1257 10.367 39.8526 10.3038 39.594L12.0282 40.6725C12.1103 40.9287 12.1174 41.2037 12.0484 41.4637Z" fill="#3A5A42" stroke="white" stroke-width="0.1764" stroke-linecap="round" stroke-linejoin="round"/>
<path d="M9.67057 39.9822C9.53275 40.2023 9.48408 40.4679 9.53503 40.7234L7.81959 39.3984C7.80758 39.1366 7.86915 38.8768 7.99723 38.6488C8.14528 38.4289 8.21077 38.1622 8.18157 37.8975L9.75237 39.195C9.80067 39.4599 9.77222 39.7333 9.67057 39.9822Z" fill="#3A5A42" stroke="white" stroke-width="0.1764" stroke-linecap="round" stroke-linejoin="round"/>
<path d="M7.50348 38.1985C7.62106 37.9108 7.64015 37.5917 7.55785 37.2915L6.29541 35.9344C6.29036 36.2009 6.19123 36.4566 6.01612 36.6552C5.85985 36.864 5.76528 37.1135 5.74341 37.3748L7.27375 38.9156C7.25618 38.6555 7.33848 38.3986 7.50348 38.1985Z" fill="#3A5A42" stroke="white" stroke-width="0.1764" stroke-linecap="round" stroke-linejoin="round"/>
<path d="M5.58451 36.1431C5.39524 36.3196 5.28057 36.5635 5.26439 36.8236L3.94531 35.0934C4.00056 34.8373 4.12649 34.6023 4.30817 34.4159C4.50756 34.2422 4.63867 34.0019 4.67799 33.7385L5.86418 35.4043C5.84332 35.6729 5.74622 35.9296 5.58451 36.1431Z" fill="#3A5A42" stroke="white" stroke-width="0.1764" stroke-linecap="round" stroke-linejoin="round"/>
<path d="M3.94631 33.8511C3.73593 34.0009 3.59091 34.2275 3.54147 34.4834L2.4563 32.5932C2.54404 32.3466 2.69905 32.1304 2.90324 31.9697C3.12311 31.8239 3.28418 31.6029 3.35701 31.347L4.31878 33.1557C4.26353 33.4189 4.13419 33.6606 3.94631 33.8511Z" fill="#3A5A42" stroke="white" stroke-width="0.1764" stroke-linecap="round" stroke-linejoin="round"/>
<path d="M2.61692 31.3615C2.38909 31.4822 2.21613 31.6877 2.1342 31.9349L1.30151 29.9172C1.42023 29.6844 1.60179 29.4906 1.82482 29.3582C2.06163 29.2429 2.24963 29.0451 2.35483 28.8009L3.07562 30.7216C2.98699 30.9754 2.82768 31.1977 2.61692 31.3615Z" fill="#3A5A42" stroke="white" stroke-width="0.1764" stroke-linecap="round" stroke-linejoin="round"/>
<path d="M1.61952 28.7176C1.8495 28.583 2.03611 28.3836 2.15673 28.1435L1.68918 26.1439C1.55352 26.372 1.34149 26.5432 1.09204 26.6263C0.853715 26.7279 0.649021 26.8962 0.501221 27.1113L1.06726 29.2221C1.18016 28.988 1.37803 28.8071 1.61952 28.7176Z" fill="#3A5A42" stroke="white" stroke-width="0.1764" stroke-linecap="round" stroke-linejoin="round"/>
<path d="M0.970575 25.964C1.21585 25.861 1.42649 25.6881 1.57695 25.4661L1.37073 23.4216C1.20688 23.6299 0.974747 23.7715 0.716698 23.8208C0.467246 23.8899 0.242575 24.0296 0.0686035 24.2233L0.358135 26.3909C0.500245 26.1737 0.719606 26.021 0.970575 25.964Z" fill="#3A5A42" stroke="white" stroke-width="0.1764" stroke-linecap="round" stroke-linejoin="round"/>
<path d="M0.68183 23.1483C0.938236 23.0786 1.16923 22.935 1.34699 22.7349L1.40553 20.6807C1.21626 20.8654 0.967821 20.975 0.705726 20.9898C0.449573 21.0254 0.208719 21.134 0.0112305 21.3031L0.0194486 23.4906C0.188363 23.294 0.425677 23.1714 0.68183 23.1483Z" fill="#3A5A42" stroke="white" stroke-width="0.1764" stroke-linecap="round" stroke-linejoin="round"/>
<path d="M0.757449 20.318C1.02081 20.283 1.26836 20.1713 1.47028 19.9963L1.79268 17.9675C1.58128 18.1256 1.32096 18.2015 1.05899 18.1814C0.800562 18.1826 0.54795 18.2586 0.330232 18.4L0.0568848 20.5699C0.249568 20.3972 0.500537 20.3071 0.757449 20.318Z" fill="#3A5A42" stroke="white" stroke-width="0.1764" stroke-linecap="round" stroke-linejoin="round"/>
<path d="M1.19634 17.5224C1.46198 17.5225 1.7218 17.4445 1.94445 17.2978L2.52503 15.3289C2.29505 15.4576 2.02713 15.4983 1.77022 15.4437C1.51382 15.4108 1.25349 15.4525 1.01947 15.564L0.469482 17.6791C0.682648 17.5335 0.943226 17.4773 1.19634 17.5224Z" fill="#3A5A42" stroke="white" stroke-width="0.1764" stroke-linecap="round" stroke-linejoin="round"/>
<path d="M1.99163 14.8085C2.25486 14.8437 2.52252 14.8009 2.76224 14.6849L3.59126 12.8098C3.34674 12.907 3.07592 12.9119 2.82798 12.8236C2.57802 12.757 2.31454 12.764 2.06825 12.8436L1.25073 14.8676C1.48084 14.7515 1.74635 14.7304 1.99163 14.8085Z" fill="#3A5A42" stroke="white" stroke-width="0.1764" stroke-linecap="round" stroke-linejoin="round"/>
<path d="M3.12925 12.2232C3.38566 12.293 3.6566 12.2858 3.90921 12.2027L4.97226 10.4534C4.71725 10.5174 4.44807 10.4864 4.21379 10.3661C3.97458 10.267 3.71248 10.2388 3.45798 10.2851L2.38696 12.1836C2.63009 12.0992 2.89611 12.1133 3.12925 12.2232Z" fill="#3A5A42" stroke="white" stroke-width="0.1764" stroke-linecap="round" stroke-linejoin="round"/>
<path d="M4.58967 9.81072C4.37271 9.67091 4.11074 9.62153 3.85889 9.67322L5.16494 7.93289C5.42311 7.9207 5.67939 7.9833 5.90381 8.1131C6.12077 8.26331 6.38362 8.32975 6.64458 8.30012L5.36546 9.89371C5.10438 9.94271 4.83495 9.91397 4.58967 9.81072Z" fill="#3A5A42" stroke="white" stroke-width="0.1764" stroke-linecap="round" stroke-linejoin="round"/>
<path d="M6.348 7.61227C6.15076 7.44488 5.89752 7.36138 5.64111 7.3792L7.15995 5.82666C7.41749 5.84885 7.66353 5.94479 7.86936 6.1032C8.06508 6.28098 8.31706 6.38154 8.57966 6.3868L7.10647 7.79723C6.84134 7.81134 6.57785 7.74695 6.348 7.61227Z" fill="#3A5A42" stroke="white" stroke-width="0.1764" stroke-linecap="round" stroke-linejoin="round"/>
<path d="M8.37398 5.66542C8.20013 5.4734 7.95978 5.35706 7.70312 5.34077L9.4087 4.00256C9.66119 4.05874 9.89281 4.18637 10.0765 4.37082C10.2477 4.57297 10.4846 4.70611 10.7443 4.74587L9.10236 5.94927C8.83761 5.92811 8.58461 5.82947 8.37398 5.66542Z" fill="#3A5A42" stroke="white" stroke-width="0.1764" stroke-linecap="round" stroke-linejoin="round"/>
<path d="M10.6333 4.00344C10.4856 3.79001 10.2622 3.64288 10.01 3.59273L11.8731 2.49194C12.1163 2.58083 12.3294 2.73809 12.4878 2.94524C12.6315 3.1683 12.8493 3.33171 13.1015 3.40559L11.3187 4.38119C11.0591 4.32539 10.8209 4.19418 10.6333 4.00344Z" fill="#3A5A42" stroke="white" stroke-width="0.1764" stroke-linecap="round" stroke-linejoin="round"/>
<path d="M13.0869 2.65505C12.9679 2.42391 12.7654 2.24844 12.5217 2.16532L14.5105 1.32056C14.7401 1.44087 14.9313 1.62519 15.0616 1.85158C15.1753 2.0917 15.3703 2.28243 15.611 2.38915L13.7179 3.1204C13.4677 3.03048 13.2485 2.86887 13.0869 2.65505Z" fill="#3A5A42" stroke="white" stroke-width="0.1764" stroke-linecap="round" stroke-linejoin="round"/>
<path d="M15.6934 1.64294C15.6051 1.39808 15.427 1.19722 15.196 1.08255L17.2766 0.508423C17.4888 0.65811 17.6545 0.866031 17.7547 1.10781C17.8365 1.36101 18.0051 1.57599 18.2302 1.71362L16.2591 2.18795C16.0225 2.06558 15.8259 1.87639 15.6934 1.64294Z" fill="#3A5A42" stroke="white" stroke-width="0.1764" stroke-linecap="round" stroke-linejoin="round"/>
<path d="M18.4073 0.984765C18.3515 0.730284 18.2005 0.507612 17.9863 0.363312L20.1229 0.0695801C20.314 0.246076 20.4516 0.474263 20.5199 0.727077C20.5685 0.988998 20.708 1.22437 20.9134 1.39073L18.8983 1.60006C18.6794 1.44742 18.5089 1.23373 18.4073 0.984765Z" fill="#3A5A42" stroke="white" stroke-width="0.1764" stroke-linecap="round" stroke-linejoin="round"/>
<path d="M21.183 0.691431C21.1603 0.431562 21.0394 0.190933 20.8457 0.0195678L23.0019 0.0112305C23.1685 0.211712 23.2757 0.455932 23.3106 0.715801C23.3252 0.981827 23.4334 1.23374 23.6153 1.42576L21.5905 1.36637C21.3933 1.18616 21.2517 0.951556 21.183 0.691431Z" fill="#3A5A42" stroke="white" stroke-width="0.1764" stroke-linecap="round" stroke-linejoin="round"/>
<path d="M23.9725 0.768473C23.9834 0.507835 23.8945 0.253096 23.7246 0.0576172L25.8631 0.334931C26.0027 0.55555 26.0773 0.812084 26.0788 1.07426C26.0589 1.3399 26.1337 1.60413 26.2896 1.8186L24.2898 1.49151C24.1173 1.28667 24.0073 1.03553 23.9725 0.768473Z" fill="#3A5A42" stroke="white" stroke-width="0.1764" stroke-linecap="round" stroke-linejoin="round"/>
<path d="M26.7285 1.21386C26.7729 0.956941 26.7173 0.692711 26.574 0.476196L28.6586 1.03441C28.7686 1.27171 28.8097 1.53581 28.7773 1.79594C28.7233 2.0567 28.7637 2.32837 28.8905 2.56182L26.9497 1.97282C26.8052 1.74694 26.7283 1.48322 26.7285 1.21386Z" fill="#3A5A42" stroke="white" stroke-width="0.1764" stroke-linecap="round" stroke-linejoin="round"/>
<path d="M29.4035 2.02057C29.4804 1.77173 29.4595 1.50237 29.3452 1.2688L31.3403 2.0983C31.4187 2.34804 31.4255 2.61535 31.3599 2.86893C31.2729 3.12033 31.2779 3.39521 31.3736 3.64328L29.5253 2.80223C29.4108 2.55917 29.3686 2.28762 29.4035 2.02057Z" fill="#3A5A42" stroke="white" stroke-width="0.1764" stroke-linecap="round" stroke-linejoin="round"/>
<path d="M31.9517 3.17456C32.0599 2.93803 32.0741 2.66816 31.9908 2.42163L33.862 3.50805C33.9075 3.76625 33.8799 4.03202 33.7823 4.27483C33.6637 4.51264 33.6332 4.78572 33.6961 5.04431L31.9719 3.96571C31.8899 3.70956 31.8829 3.43468 31.9517 3.17456Z" fill="#3A5A42" stroke="white" stroke-width="0.1764" stroke-linecap="round" stroke-linejoin="round"/>
<path d="M34.3296 4.65618C34.4675 4.43607 34.5159 4.17043 34.4651 3.91479L36.1805 5.23979C36.1925 5.50172 36.1309 5.76171 36.0029 5.98939C35.8547 6.20936 35.7894 6.47603 35.8187 6.74077L34.2478 5.44323C34.1995 5.17848 34.2279 4.90502 34.3296 4.65618Z" fill="#3A5A42" stroke="white" stroke-width="0.1764" stroke-linecap="round" stroke-linejoin="round"/>
<path d="M36.4967 6.44004C36.3638 6.67323 36.3005 6.94054 36.3144 7.20964L37.7048 8.70421C37.7099 8.43767 37.8091 8.18204 37.9842 7.98348C38.1405 7.77466 38.235 7.52505 38.2568 7.26377L36.7264 5.7229C36.744 5.98315 36.6616 6.24007 36.4967 6.44004Z" fill="#3A5A42" stroke="white" stroke-width="0.1764" stroke-linecap="round" stroke-linejoin="round"/>
<path d="M38.4158 8.49553C38.2541 8.70922 38.1567 8.96588 38.136 9.23434L39.3222 10.9001C39.3616 10.6367 39.4927 10.3963 39.692 10.2226C39.8738 10.0363 39.9997 9.80141 40.0549 9.54526L38.7358 7.81494C38.7197 8.0752 38.605 8.31903 38.4158 8.49553Z" fill="#3A5A42" stroke="white" stroke-width="0.1764" stroke-linecap="round" stroke-linejoin="round"/>
<path d="M40.0539 10.7875C39.866 10.9779 39.7366 11.2195 39.6814 11.483L40.643 13.2917C40.716 13.0356 40.8771 12.8146 41.0969 12.6689C41.3011 12.5082 41.4561 12.292 41.5436 12.0453L40.4587 10.1552C40.4091 10.411 40.2641 10.6377 40.0539 10.7875Z" fill="#3A5A42" stroke="white" stroke-width="0.1764" stroke-linecap="round" stroke-linejoin="round"/>
<path d="M41.3831 13.2768C41.1724 13.4408 41.0132 13.6632 40.9246 13.917L41.6452 15.8377C41.7503 15.5935 41.9383 15.3957 42.175 15.2804C42.3983 15.1481 42.5797 14.9542 42.6984 14.7213L41.8659 12.7036C41.7838 12.9508 41.6107 13.1561 41.3831 13.2768Z" fill="#3A5A42" stroke="white" stroke-width="0.1764" stroke-linecap="round" stroke-linejoin="round"/>
<path d="M42.3807 15.9209C42.1506 16.0554 41.964 16.2549 41.8435 16.4949L42.3109 18.4944C42.4466 18.2663 42.6586 18.0951 42.9082 18.012C43.1464 17.9104 43.3515 17.7422 43.499 17.5271L42.933 15.4164C42.8201 15.6506 42.6221 15.8313 42.3807 15.9209Z" fill="#3A5A42" stroke="white" stroke-width="0.1764" stroke-linecap="round" stroke-linejoin="round"/>
<path d="M43.0295 18.6744C42.7842 18.7774 42.5736 18.9503 42.4231 19.1724L42.6293 21.2167C42.7933 21.0084 43.0254 20.8668 43.2836 20.8175C43.5329 20.7484 43.7575 20.6087 43.9317 20.4149L43.6422 18.2473C43.4999 18.4647 43.2803 18.6176 43.0295 18.6744Z" fill="#3A5A42" stroke="white" stroke-width="0.1764" stroke-linecap="round" stroke-linejoin="round"/>
<path d="M43.3183 21.4904C43.0619 21.5599 42.8308 21.7036 42.653 21.9038L42.5945 23.958C42.7836 23.7732 43.0321 23.6636 43.2943 23.6488C43.5503 23.6134 43.7913 23.5047 43.9887 23.3355L43.9807 21.1482C43.8117 21.3447 43.5745 21.4673 43.3183 21.4904Z" fill="#3A5A42" stroke="white" stroke-width="0.1764" stroke-linecap="round" stroke-linejoin="round"/>
<path d="M43.2429 24.3204C42.9795 24.3555 42.7318 24.4673 42.5298 24.6422L42.2075 26.671C42.419 26.513 42.6791 26.437 42.9412 26.4573C43.1998 26.4559 43.4524 26.38 43.6701 26.2385L43.9433 24.0687C43.7508 24.2414 43.4997 24.3314 43.2429 24.3204Z" fill="#3A5A42" stroke="white" stroke-width="0.1764" stroke-linecap="round" stroke-linejoin="round"/>
<path d="M42.8037 27.1163C42.538 27.1162 42.2783 27.1942 42.0556 27.3409L41.4749 29.31C41.7047 29.181 41.9727 29.1404 42.2299 29.195C42.4862 29.2279 42.7466 29.1862 42.9807 29.0747L43.5308 26.9597C43.3174 27.1052 43.0568 27.1612 42.8037 27.1163Z" fill="#3A5A42" stroke="white" stroke-width="0.1764" stroke-linecap="round" stroke-linejoin="round"/>
<path d="M42.0082 29.8299C41.7451 29.7949 41.4773 29.8377 41.2376 29.9536L40.4087 31.8287C40.6533 31.7314 40.9242 31.7266 41.172 31.8148C41.4218 31.8814 41.6854 31.8746 41.9316 31.7948L42.7492 29.771C42.5191 29.8868 42.2533 29.908 42.0082 29.8299Z" fill="#3A5A42" stroke="white" stroke-width="0.1764" stroke-linecap="round" stroke-linejoin="round"/>
<path d="M40.8711 32.4151C40.6146 32.3453 40.3436 32.3525 40.0911 32.4355L39.0281 34.1851C39.283 34.1211 39.5523 34.1521 39.7865 34.2724C40.0259 34.3714 40.288 34.3995 40.5422 34.3532L41.6132 32.4547C41.3699 32.5393 41.1041 32.5252 40.8711 32.4151Z" fill="#3A5A42" stroke="white" stroke-width="0.1764" stroke-linecap="round" stroke-linejoin="round"/>
<path d="M39.4105 34.8279C39.1654 34.7246 38.8958 34.6959 38.6347 34.745L37.3555 36.3385C37.6166 36.3089 37.8795 36.375 38.0964 36.5255C38.3207 36.6556 38.5771 36.718 38.8352 36.7057L40.1414 34.9654C39.8894 35.017 39.6275 34.9677 39.4105 34.8279Z" fill="#3A5A42" stroke="white" stroke-width="0.1764" stroke-linecap="round" stroke-linejoin="round"/>
<path d="M37.6522 37.0264C37.4223 36.8915 37.1587 36.8272 36.8935 36.8413L35.4204 38.2519C35.683 38.2571 35.935 38.3576 36.1308 38.5354C36.3367 38.6938 36.5826 38.7898 36.8401 38.8121L38.359 37.2595C38.1026 37.2772 37.8492 37.1936 37.6522 37.0264Z" fill="#3A5A42" stroke="white" stroke-width="0.1764" stroke-linecap="round" stroke-linejoin="round"/>
<path d="M35.6262 38.9731C35.4156 38.809 35.1626 38.7104 34.8978 38.6893L33.2559 39.8926C33.5157 39.9325 33.7526 40.0658 33.9237 40.2677C34.1074 40.4521 34.3389 40.5799 34.5914 40.6359L36.2968 39.2976C36.0405 39.2815 35.8001 39.1651 35.6262 38.9731Z" fill="#3A5A42" stroke="white" stroke-width="0.1764" stroke-linecap="round" stroke-linejoin="round"/>
<path d="M24.893 41.668C24.9277 41.9351 25.0378 42.1863 25.2104 42.3911C25.7739 42.4185 26.3116 42.6386 26.7361 43.0157C26.7341 42.6959 26.8676 42.3909 27.1027 42.1783C27.2222 42.051 27.3167 41.9018 27.3812 41.7387C26.7511 41.2719 25.9971 41.0086 25.2173 40.9828C25.0387 40.9769 24.86 40.9835 24.6824 41.0026C24.8284 41.192 24.9031 41.4279 24.893 41.668Z" fill="#3A5A42" stroke="white" stroke-width="0.1764" stroke-linecap="round" stroke-linejoin="round"/>
<path d="M33.3669 40.6347C33.1793 40.4443 32.9412 40.313 32.6813 40.2571L30.8984 41.2327C31.1508 41.3066 31.3686 41.47 31.5123 41.693C31.6707 41.9002 31.8839 42.0574 32.127 42.1463L33.9898 41.0455C33.7379 40.9955 33.5146 40.8483 33.3669 40.6347Z" fill="#3A5A42" stroke="white" stroke-width="0.1764" stroke-linecap="round" stroke-linejoin="round"/>
<path d="M30.9132 41.9834C30.7517 41.7696 30.5323 41.6079 30.2823 41.5179L28.5525 42.2701C28.8226 42.6572 29.0284 43.0863 29.1623 43.5406L31.4783 42.4733C31.2346 42.39 31.0321 42.2146 30.9132 41.9834Z" fill="#3A5A42" stroke="white" stroke-width="0.1764" stroke-linecap="round" stroke-linejoin="round"/>
<path d="M16.674 25.2113C17.5251 25.0372 18.3871 24.9217 19.2537 24.8657C18.8997 22.9591 18.0891 21.17 16.8933 19.656C16.2746 18.8676 15.5269 18.1933 14.6829 17.6623C13.9038 17.1722 13.0079 16.9068 12.0914 16.8949C10.3865 16.9321 8.84931 17.9457 8.12397 19.5114C7.75997 20.2972 7.56159 21.1513 7.54187 22.0193C7.48131 24.6802 9.47642 26.9276 12.0913 27.1437C11.6613 25.9132 12.0806 24.5424 13.1213 23.7749C13.743 23.4057 14.5143 23.412 15.13 23.7916C15.729 24.1608 16.2531 24.6426 16.674 25.2113Z" fill="#3A5A42" stroke="white" stroke-width="0.1764" stroke-linecap="round" stroke-linejoin="round"/>
<path d="M27.3259 25.2113C26.4749 25.0372 25.613 24.9217 24.7463 24.8657C25.1003 22.9591 25.911 21.17 27.1068 19.656C27.7255 18.8676 28.4732 18.1933 29.317 17.6623C30.0961 17.1722 30.9922 16.9068 31.9088 16.8949C33.6136 16.9321 35.1507 17.9457 35.8761 19.5114C36.2402 20.2972 36.4383 21.1513 36.4582 22.0193C36.5187 24.6802 34.5234 26.9276 31.9088 27.1437C32.3386 25.9132 31.9195 24.5424 30.8786 23.7749C30.2569 23.4057 29.4857 23.412 28.8699 23.7916C28.2709 24.1608 27.747 24.6426 27.3259 25.2113Z" fill="#3A5A42" stroke="white" stroke-width="0.1764" stroke-linecap="round" stroke-linejoin="round"/>
<path d="M22 32.0106L21.3875 27.7967C20.8992 27.7892 20.4109 27.7725 19.9232 27.7466C19.7077 29.1786 19.1022 30.5214 18.1748 31.6231C19.1319 33.0499 20.4544 34.1849 21.9999 34.9061C23.5455 34.1849 24.868 33.0499 25.8249 31.6231C24.8977 30.5214 24.2923 29.1786 24.0767 27.7466C23.5889 27.7724 23.1008 27.7892 22.6123 27.7967L22 32.0106Z" fill="#3A5A42" stroke="white" stroke-width="0.1764" stroke-linecap="round" stroke-linejoin="round"/>
<path d="M17.3908 27.4928C18.0412 27.5932 18.6953 27.6658 19.3518 27.7102C19.2638 28.4611 19.0325 29.1874 18.6711 29.8488C18.3305 30.5168 17.7597 31.0346 17.0673 31.3033C16.4392 31.5023 15.755 31.384 15.2275 30.9851C14.6922 30.6062 14.3349 30.0199 14.2402 29.3646C14.96 29.6113 15.7478 29.549 16.4211 29.1918C16.7656 29.009 17.0422 28.7175 17.209 28.361C17.3359 28.0898 17.3947 27.791 17.3799 27.491" fill="#3A5A42"/>
<path d="M17.3908 27.4928C18.0412 27.5932 18.6953 27.6658 19.3518 27.7102C19.2638 28.4611 19.0325 29.1874 18.6711 29.8488C18.3305 30.5168 17.7597 31.0346 17.0673 31.3033C16.4392 31.5023 15.755 31.384 15.2275 30.9851C14.6922 30.6062 14.3349 30.0199 14.2402 29.3646C14.96 29.6113 15.7478 29.549 16.4211 29.1918C16.7656 29.009 17.0422 28.7175 17.209 28.361C17.3359 28.0898 17.3947 27.791 17.3799 27.491" stroke="white" stroke-width="0.1764" stroke-linecap="round" stroke-linejoin="round"/>
<path d="M26.6093 27.4928C25.9588 27.5932 25.3048 27.6658 24.6484 27.7102C24.7363 28.4611 24.9676 29.1874 25.329 29.8488C25.6696 30.5168 26.2405 31.0346 26.9328 31.3033C27.5611 31.5023 28.2451 31.384 28.7729 30.9851C29.3081 30.6062 29.6653 30.0199 29.76 29.3646C29.0403 29.6113 28.2523 29.549 27.5793 29.1918C27.2345 29.009 26.958 28.7175 26.7912 28.361C26.6643 28.0898 26.6055 27.791 26.6203 27.491" fill="#3A5A42"/>
<path d="M26.6093 27.4928C25.9588 27.5932 25.3048 27.6658 24.6484 27.7102C24.7363 28.4611 24.9676 29.1874 25.329 29.8488C25.6696 30.5168 26.2405 31.0346 26.9328 31.3033C27.5611 31.5023 28.2451 31.384 28.7729 30.9851C29.3081 30.6062 29.6653 30.0199 29.76 29.3646C29.0403 29.6113 28.2523 29.549 27.5793 29.1918C27.2345 29.009 26.958 28.7175 26.7912 28.361C26.6643 28.0898 26.6055 27.791 26.6203 27.491" stroke="white" stroke-width="0.1764" stroke-linecap="round" stroke-linejoin="round"/>
<path d="M22.0001 25.2462C18.4491 25.2457 15.5704 25.7103 15.5704 26.2838C15.5703 26.8573 18.4489 27.3226 21.9998 27.3231C25.5508 27.3236 28.4295 26.859 28.4296 26.2855C28.4297 25.712 25.5511 25.2467 22.0001 25.2462Z" fill="#3A5A42" stroke="white" stroke-width="0.1764" stroke-linecap="round" stroke-linejoin="round"/>
<path d="M22.0001 13.6313L21.267 24.7744C20.8162 24.7823 20.3655 24.7986 19.9153 24.823C19.8038 23.8208 19.5809 22.835 19.2507 21.8839C18.8772 20.7124 18.4453 19.5609 17.9568 18.4339C17.5016 17.3491 17.1547 16.221 16.9209 15.0662C16.4733 13.2127 16.9989 11.256 18.3115 9.88922C19.0699 9.13296 19.8608 8.41146 20.6824 7.72651C21.2975 7.2137 21.7548 6.5326 22.0001 5.76428C22.2452 6.53273 22.7027 7.2137 23.3178 7.72651C24.1393 8.41146 24.9304 9.13296 25.6886 9.88922C27.0011 11.256 27.5268 13.2127 27.0791 15.0662C26.8455 16.221 26.4984 17.3491 26.0434 18.4339C25.5551 19.5609 25.1232 20.7124 24.7496 21.8839C24.4195 22.835 24.1965 23.8208 24.0849 24.823C23.6346 24.7986 23.1841 24.7823 22.7333 24.7744L22.0001 13.6313Z" fill="#3A5A42" stroke="white" stroke-width="0.1764" stroke-linecap="round" stroke-linejoin="round"/>
<path d="M13.0548 20.8239H11.6223L11.1797 19.4417L10.7371 20.8239H9.30444L10.4635 21.678L10.0207 23.0602L11.1797 22.2061L12.3386 23.0602L11.8959 21.678L13.0548 20.8239Z" fill="white" stroke="white" stroke-width="0.1764" stroke-linecap="round" stroke-linejoin="round"/>
<path d="M34.6956 20.8239H33.263L32.8203 19.4417L32.3776 20.8239H30.9451L32.104 21.678L31.6613 23.0602L32.8203 22.2061L33.9792 23.0602L33.5366 21.678L34.6956 20.8239Z" fill="white" stroke="white" stroke-width="0.1764" stroke-linecap="round" stroke-linejoin="round"/>
</g>
<defs>
<clipPath id="clip0_384_2045">
<rect width="44" height="51" fill="white"/>
</clipPath>
</defs>
</svg>
