<svg width="34" height="34" viewBox="0 0 34 34" fill="none" xmlns="http://www.w3.org/2000/svg">
<path d="M29.75 26.9167V28.3334H4.25V26.9167L7.08333 24.0834V15.5834C7.08333 11.1917 9.95917 7.32421 14.1667 6.07754V5.66671C14.1667 4.91526 14.4652 4.19459 14.9965 3.66324C15.5279 3.13188 16.2486 2.83337 17 2.83337C17.7514 2.83337 18.4721 3.13188 19.0035 3.66324C19.5348 4.19459 19.8333 4.91526 19.8333 5.66671V6.07754C24.0408 7.32421 26.9167 11.1917 26.9167 15.5834V24.0834L29.75 26.9167ZM19.8333 29.75C19.8333 30.5015 19.5348 31.2222 19.0035 31.7535C18.4721 32.2849 17.7514 32.5834 17 32.5834C16.2486 32.5834 15.5279 32.2849 14.9965 31.7535C14.4652 31.2222 14.1667 30.5015 14.1667 29.75" fill="#3A5A42"/>
</svg>
