<svg width="34" height="34" viewBox="0 0 34 34" fill="none" xmlns="http://www.w3.org/2000/svg">
<path d="M9.91659 24.0834L14.4499 14.45L24.0833 9.91671L19.5499 19.55L9.91659 24.0834ZM16.9999 15.725C16.6618 15.725 16.3375 15.8594 16.0984 16.0985C15.8592 16.3376 15.7249 16.6619 15.7249 17C15.7249 17.3382 15.8592 17.6625 16.0984 17.9016C16.3375 18.1407 16.6618 18.275 16.9999 18.275C17.3381 18.275 17.6624 18.1407 17.9015 17.9016C18.1406 17.6625 18.2749 17.3382 18.2749 17C18.2749 16.6619 18.1406 16.3376 17.9015 16.0985C17.6624 15.8594 17.3381 15.725 16.9999 15.725ZM16.9999 2.83337C18.8603 2.83337 20.7025 3.19981 22.4213 3.91175C24.14 4.62369 25.7018 5.6672 27.0173 6.98269C28.3328 8.29819 29.3763 9.85991 30.0882 11.5787C30.8002 13.2975 31.1666 15.1396 31.1666 17C31.1666 20.7573 29.674 24.3606 27.0173 27.0174C24.3605 29.6742 20.7572 31.1667 16.9999 31.1667C15.1395 31.1667 13.2973 30.8003 11.5786 30.0883C9.85979 29.3764 8.29807 28.3329 6.98257 27.0174C4.32581 24.3606 2.83325 20.7573 2.83325 17C2.83325 13.2428 4.32581 9.63946 6.98257 6.98269C9.63934 4.32593 13.2427 2.83337 16.9999 2.83337ZM16.9999 5.66671C13.9941 5.66671 11.1115 6.86075 8.98604 8.98616C6.86063 11.1116 5.66659 13.9943 5.66659 17C5.66659 20.0058 6.86063 22.8885 8.98604 25.0139C11.1115 27.1393 13.9941 28.3334 16.9999 28.3334C20.0057 28.3334 22.8884 27.1393 25.0138 25.0139C27.1392 22.8885 28.3333 20.0058 28.3333 17C28.3333 13.9943 27.1392 11.1116 25.0138 8.98616C22.8884 6.86075 20.0057 5.66671 16.9999 5.66671Z" fill="#3A5A42"/>
</svg>