<svg width="82" height="114" viewBox="0 0 82 114" fill="none" xmlns="http://www.w3.org/2000/svg">
<path d="M12.1446 70.2417C13.237 67.899 15.9349 66.7752 18.3673 67.6494L76.0122 88.3679C78.7803 89.3627 80.0957 92.5204 78.8526 95.1863L72.5946 108.607C71.3162 111.348 67.9153 112.336 65.3676 110.705L13.5322 77.5279C11.4223 76.1774 10.6374 73.4739 11.6961 71.2035L12.1446 70.2417Z" fill="#4B4B4B"/>
<path d="M69.0233 70.0266C67.931 67.684 65.2331 66.5601 62.8006 67.4344L5.15578 88.1528C2.38771 89.1477 1.0723 92.3054 2.31539 94.9712L8.57343 108.392C9.8518 111.133 13.2526 112.12 15.8003 110.49L67.6357 77.3128C69.7457 75.9624 70.5306 73.2589 69.4719 70.9885L69.0233 70.0266Z" fill="#4B4B4B"/>
<path d="M68.9139 45.8109C69.6698 48.3425 70.0745 50.9802 69.9301 53.6184C68.873 72.9317 55.9762 81.8221 41.5642 81.8221C22.5095 84.2002 -1.95168 62.4999 24.8172 31.1384C20.5974 38.0499 30.9489 78.6264 40.8389 0C50.1879 8.21931 62.4236 24.0755 68.9139 45.8109Z" fill="#F56821"/>
<path d="M55.16 52.6244C56.3221 56.4229 56.8376 60.4064 56.5975 64.3714C55.6678 79.727 50.7572 82 41.2933 82C29.6429 82 27.01 77.0675 22.9291 62.6438C42.6755 75.7971 46.0324 46.6506 49.0602 36.1878C50.56 39.1962 53.1989 46.2141 55.16 52.6244Z" fill="white"/>
</svg>